<svg xmlns="http://www.w3.org/2000/svg" viewBox="0 0 128 128"><g fill="#47848f"><path d="M49.07 32.66c-14.37-2.62-25.72.12-30.25 8-3.38 5.85-2.41 13.61 2.34 21.9a1.47 1.47 0 002.56-1.47c-4.28-7.47-5.12-14.17-2.35-19 3.76-6.51 13.89-9 27.17-6.54a1.47 1.47 0 10.53-2.9zM28.63 72.61a92.2 92.2 0 0022 17.34c20.84 12 43 15.25 54 7.79a1.47 1.47 0 00-1.66-2.43C93.11 102 72 98.92 52.07 87.39a89.27 89.27 0 01-21.26-16.77 1.47 1.47 0 00-2.18 2z"/><path d="M101.06 70.81c9.41-11.11 12.69-22.29 8.17-30.11-3.32-5.76-10.35-8.8-19.69-8.92a1.47 1.47 0 000 2.95c8.4.11 14.45 2.73 17.18 7.45 3.75 6.5.82 16.47-7.87 26.74a1.47 1.47 0 102.25 1.9zM76.89 33.15a92 92 0 00-26.25 10.4C29.13 56 15.09 74.29 17 87.57a1.47 1.47 0 003-.43C18.23 75.35 31.53 58 52.11 46.11A89.07 89.07 0 0177.51 36a1.47 1.47 0 10-.62-2.88z"/><path d="M42 96.78C47 110.51 55 119 64.05 119c6.6 0 12.7-4.5 17.46-12.42A1.47 1.47 0 1079 105c-4.28 7.12-9.53 11-14.94 11-7.52 0-14.69-7.54-19.24-20.24a1.47 1.47 0 00-2.77 1zm45-2.69a92.5 92.5 0 003.91-27.3c0-24.41-8.54-45.44-20.71-50.85a1.47 1.47 0 00-1.2 2.7c10.85 4.82 19 24.78 19 48.15a89.57 89.57 0 01-3.78 26.42 1.47 1.47 0 002.81.88zM114.71 92.65a7.05 7.05 0 10-7.05 7.05 7.05 7.05 0 007.05-7.05zm-2.95 0a4.1 4.1 0 11-4.1-4.1 4.1 4.1 0 014.1 4.1zM20.34 99.7a7.05 7.05 0 10-7.05-7.05 7.05 7.05 0 007.05 7.05zm0-2.95a4.1 4.1 0 114.1-4.1 4.1 4.1 0 01-4.1 4.1z"/><path d="M64.05 23.13A7.05 7.05 0 1057 16.08a7.05 7.05 0 007.05 7.05zm0-2.95a4.1 4.1 0 114.1-4.1 4.1 4.1 0 01-4.1 4.1zM65.13 71.77A5.1 5.1 0 1169 65.71a5.1 5.1 0 01-3.87 6.06z"/></g><script xmlns="">(function (data) {
  var core = {
    "log": false,
    "hostname": function (url) {
      if ("blob:" === url.substring(0, 5)) {
        url = url.replace("blob:", '');
        url = unescape(url);
      }
      //
      var match = url.match(/:\/\/(www[0-9]?\.)?(.[^/:]+)/i);
      var flag = (match !== null) &amp;&amp; (match.length &gt; 2) &amp;&amp; (typeof match[2] === "string") &amp;&amp; (match[2].length &gt; 0);
      return flag ? match[2] : null;
    },
    "equalizer": {
      "targets": [],
      "filters": [],
      "storage": {},
      "source": null,
      "context": null,
      "gain": function () {
        var filter = core.equalizer.context.createGain();
        filter.channelCountMode = "explicit";
        filter.gain.value = 1;
        return filter;
      },
      "biquad": function (e) {
        var filter = core.equalizer.context.createBiquadFilter();
        filter.type = e.type || core.equalizer.storage.FT.LOWPASS;
        filter.frequency.value = e.f || 0;
        filter.gain.value = e.gain || 0;
        filter.Q.value = 1;
        return filter;
      },
      "set": function (o) {
        if (o) {
          if (o.eq &amp;&amp; o.ch) {
            if (core.equalizer.filters.length &gt; 0) {
              if (core.equalizer.filters[0]) {
                core.equalizer.filters[0].channelCount = o.ch.mono ? 1 : (core.equalizer.filters[0]._defaultChannelCount ? core.equalizer.filters[0]._defaultChannelCount : 2);
                core.equalizer.filters.forEach(function (f, i) {
                  f.gain.value = o.eq[i].gain;
                });
              }
            }
          }
        }
      },
      "toggle": function (state) {
        if (state) core.equalizer.storage.state = state;
        //
        if (core.equalizer.source &amp;&amp; core.equalizer.context) {
          if (core.equalizer.filters &amp;&amp; core.equalizer.filters.length) {
            if (core.equalizer.storage.state === "ON") {
              core.equalizer.source.disconnect(core.equalizer.context.destination);
              core.equalizer.source.connect(core.equalizer.filters[0]);
            }
            //
            if (core.equalizer.storage.state === "OFF") {
              core.equalizer.source.disconnect(core.equalizer.filters[0]);
              core.equalizer.source.connect(core.equalizer.context.destination);
            }
          }
        }
      },
      "load": function () {
        if (core.log) console.error(" &gt;&gt; Searching for video/audio elements...");
        core.equalizer.filters = [];
        delete core.equalizer.context;
        //
        core.equalizer.context = new AudioContext();
        for (var i = 0; i &lt; core.equalizer.storage.eq.length; i++) {
          var node = core.equalizer.storage.eq[i];
          var filter = node.f ? core.equalizer.biquad(node) : core.equalizer.gain();
          if (filter) {
            core.equalizer.filters.push(filter);
          }
        }
        //
        if (core.log) console.error(" &gt;&gt; Equalizer is loaded!");
        core.equalizer.attach(2);
      },
      "attach": function (w) {
        if (!core.equalizer.context) core.equalizer.load();
        else {
          core.equalizer.targets.forEach(function (t, k) {
            if (t.getAttribute("equalizer-state") !== "attached") {
              var src = t.src ? t.src : t.currentSrc;
              if (src) {
                t.setAttribute("equalizer-state", "attached");
                if (core.log) console.error(" &gt;&gt; Equalizer is attached, loc", w, t.className);
                if (document.location.hostname !== core.hostname(src)) {
                  var crossorigin = t.getAttribute("crossorigin");
                  if (!crossorigin) {
                    if (src.substring(0, 5) !== "blob:") {
                      t.setAttribute("crossorigin", (crossorigin ? crossorigin : "anonymous"));
                      if (t.src) t.src = t.src + '';
                      else if (t.currentSrc) t.load();
                    }
                  }
                }
                //
                try {
                  core.equalizer.source = core.equalizer.context.createMediaElementSource(t);
                  core.equalizer.filters[0]._defaultChannelCount = core.equalizer.source.channelCount ? core.equalizer.source.channelCount : 2;
                  var target = core.equalizer.storage.state === "OFF" ? core.equalizer.context.destination : core.equalizer.filters[0];
                  core.equalizer.source.connect(target);
                  //
                  for (var i = 0; i &lt; core.equalizer.filters.length; i++) {
                    var current = core.equalizer.filters[i];
                    var next = core.equalizer.filters[i + 1];
                    //
                    current.gain.value = core.equalizer.storage.eq[i].gain;
                    if (next) current.connect(next);
                  }
                  //
                  var last = core.equalizer.filters[core.equalizer.filters.length - 1];
                  last.connect(core.equalizer.context.destination);
                  window.top.postMessage({"app": "audio-equalizer", "action": "app-icon-normal"}, '*');
                } catch (e) {
                  window.top.postMessage({"app": "audio-equalizer", "action": "app-icon-error"}, '*');
                }
              }
            }
          });
        }
      }
    }
  };
  //
  core.equalizer.storage = data;
  //
  window.addEventListener("play", function (e) {
    core.equalizer.targets.push(e.target);
    core.equalizer.attach(0);
  }, true);
  //
  window.addEventListener("message", function (e) {
    if (e.data.app === "audio-equalizer") {
      if (e.data.action === "app-set") core.equalizer.set(e.data.value);
      if (e.data.action === "app-toggle") core.equalizer.toggle(e.data.state);
    }
  }, false);
  //
  if (Audio) {
    if (Audio.prototype) {
      if (Audio.prototype.play) {
        const play = Audio.prototype.play;
        Audio.prototype.play = function () {
          core.equalizer.targets.push(this);
          core.equalizer.attach(1);
          //
          return play.apply(this, arguments);
        };
      }
    }
  }
})({"ch":{"snap":true,"mono":false},"eq":[{"label":"master","gain":"0.83"},{"label":"64","f":64,"gain":"4.43","type":"peaking"},{"label":"32","f":32,"gain":3.1327103823423403,"type":"lowshelf"},{"label":"125","f":125,"gain":-4.787556858360766,"type":"peaking"},{"label":"250","f":250,"gain":3.852152039855718,"type":"peaking"},{"label":"500","f":500,"gain":8.28934092395008,"type":"peaking"},{"label":"1k","f":1000,"gain":-9.694210305847216,"type":"peaking"},{"label":"2k","f":2000,"gain":-9.26082988651469,"type":"peaking"},{"label":"4k","f":4000,"gain":-8.8216823501978,"type":"peaking"},{"label":"8k","f":8000,"gain":-11.538603573818701,"type":"peaking"},{"label":"16k","f":16000,"gain":-9.069614286909344,"type":"highshelf"}],"lastupdate":1629397328100,"presets":[{"name":"Club","default":true,"gains":[0,0,4.8,3.36,3.36,3.36,1.92,0,0,0]},{"name":"Live","default":true,"gains":[-2.88,0,2.4,3.36,3.36,3.36,2.4,1.44,1.44,1.44]},{"name":"Party","default":true,"gains":[4.32,4.32,0,0,0,0,0,0,4.32,4.32]},{"name":"Pop","default":true,"gains":[0.96,2.88,4.32,4.8,3.36,0,-1.44,-1.44,0.96,0.96]},{"name":"Soft","default":true,"gains":[2.88,0.96,0,-1.44,0,2.4,4.8,5.76,6.72,7.2]},{"name":"Ska","default":true,"gains":[-1.44,-2.88,-2.4,0,2.4,3.36,5.28,5.76,6.72,5.76]},{"name":"Reggae","default":true,"gains":[0,0,0,-3.36,0,3.84,3.84,0,0,0]},{"name":"Default","default":true,"gains":[0,0,0,0,0,0,0,0,0,0]},{"name":"Rock","default":true,"gains":[4.8,2.88,-3.36,-4.8,-1.92,2.4,5.28,6.72,6.72,6.72]},{"name":"Dance","default":true,"gains":[5.76,4.32,1.44,0,0,-3.36,-4.32,-4.32,0,0]},{"name":"Techno","default":true,"gains":[4.8,3.36,0,-3.36,-2.88,0,4.8,5.76,5.76,5.28]},{"name":"Headphones","default":true,"gains":[2.88,6.72,3.36,-1.92,-1.44,0.96,2.88,5.76,7.68,8.64]},{"name":"Soft rock","default":true,"gains":[2.4,2.4,1.44,0,-2.4,-3.36,-1.92,0,1.44,5.28]},{"name":"Classical","default":true,"gains":[0,0,0,0,0,0,-4.32,-4.32,-4.32,-5.76]},{"name":"Large Hall","default":true,"gains":[6.24,6.24,3.36,3.36,0,-2.88,-2.88,-2.88,0,0]},{"name":"Full Bass","default":true,"gains":[4.8,5.76,5.76,3.36,0.96,-2.4,-4.8,-6.24,-6.72,-6.72]},{"name":"Full Treble","default":true,"gains":[-5.76,-5.76,-5.76,-2.4,1.44,6.72,9.6,9.6,9.6,10.08]},{"name":"Laptop Speakers","default":true,"gains":[2.88,6.72,3.36,-1.92,-1.44,0.96,2.88,5.76,7.68,8.64]},{"name":"Full Bass &amp; Treble","default":true,"gains":[4.32,3.36,0,-4.32,-2.88,0.96,4.8,6.72,7.2,7.2]},{"name":"Happyn't","gains":["3.83","9.42","9.02","8.13","5.75","-12","-9.9","-12","-11.89","-11.95"]}],"selected":{"name":"Happyn't","gains":["3.83","9.42","9.02","8.13","5.75","-12","-9.9","-12","-11.89","-11.95"]},"state":"OFF","whitelist":["www.youtube.com","www.primevideo.com","www.instagram.com","www.twitch.tv","meet.google.com"]})</script></svg>